<svg width="49" height="48" viewBox="0 0 49 48" fill="none" xmlns="http://www.w3.org/2000/svg">
<rect x="0.889954" y="0.5" width="47" height="47" rx="23.5" stroke="white"/>
<g clip-path="url(#clip0_1_535)">
<path fill-rule="evenodd" clip-rule="evenodd" d="M24.39 16C19.99 16 16.39 19.6 16.39 24C16.39 28.4 19.99 32 24.39 32C28.79 32 32.39 28.4 32.39 24C32.39 19.6 28.79 16 24.39 16ZM26.59 23.4C26.59 23.4 26.39 22.8 26.29 22.6C27.99 21.8 29.09 20.9 29.49 20.4C30.19 21.3 30.59 22.4 30.69 23.6C29.89 23.4 28.09 23.1 26.59 23.4ZM25.49 21.1C24.69 19.7 23.79 18.5 23.39 17.8C25.29 17.3 26.99 17.9 28.29 19.1C27.89 19.6 27.09 20.4 25.49 21.1ZM21.49 18.5C21.89 19 22.69 20.2 23.49 21.7C21.29 22.2 19.29 22.3 18.39 22.3C18.79 20.7 19.99 19.3 21.49 18.5ZM24.39 23.3C24.49 23.5 24.59 23.7 24.69 23.8C21.89 24.7 20.09 27 19.49 27.9C18.69 26.8 18.19 25.5 18.19 24.2C19.09 24.1 21.69 24 24.39 23.3ZM25.39 25.5C26.09 27.5 26.49 29.1 26.59 29.9C24.49 30.6 22.09 30.2 20.79 29.1C21.19 28.4 22.49 26.6 25.39 25.5ZM28.29 28.9C28.09 28.1 27.79 26.7 27.19 25C28.29 24.8 29.89 25 30.49 25.2C30.19 26.7 29.39 28 28.29 28.9Z" fill="white"/>
</g>
<defs>
<clipPath id="clip0_1_535">
<rect width="16" height="16" fill="white" transform="translate(16.39 16)"/>
</clipPath>
</defs>
</svg>
