<svg width="49" height="48" viewBox="0 0 49 48" fill="none" xmlns="http://www.w3.org/2000/svg">
<rect x="0.889954" y="0.5" width="47" height="47" rx="23.5" stroke="white"/>
<g clip-path="url(#clip0_1_523)">
<path d="M28.4901 20.9004C29.0424 20.9004 29.4901 20.4527 29.4901 19.9004C29.4901 19.3481 29.0424 18.9004 28.4901 18.9004C27.9378 18.9004 27.4901 19.3481 27.4901 19.9004C27.4901 20.4527 27.9378 20.9004 28.4901 20.9004Z" fill="white"/>
<path d="M24.39 28C22.19 28 20.39 26.2 20.39 24C20.39 21.8 22.19 20 24.39 20C26.59 20 28.39 21.8 28.39 24C28.39 26.2 26.59 28 24.39 28ZM24.39 22C23.29 22 22.39 22.9 22.39 24C22.39 25.1 23.29 26 24.39 26C25.49 26 26.39 25.1 26.39 24C26.39 22.9 25.49 22 24.39 22Z" fill="white"/>
<path d="M28.39 32H20.39C18.29 32 16.39 30.1 16.39 28V20C16.39 17.9 18.29 16 20.39 16H28.39C30.49 16 32.39 17.9 32.39 20V28C32.39 30.1 30.49 32 28.39 32ZM20.39 18C19.49 18 18.39 19.1 18.39 20V28C18.39 29 19.39 30 20.39 30H28.39C29.29 30 30.39 28.9 30.39 28V20C30.39 19.1 29.29 18 28.39 18H20.39Z" fill="white"/>
</g>
<defs>
<clipPath id="clip0_1_523">
<rect width="16" height="16" fill="white" transform="translate(16.39 16)"/>
</clipPath>
</defs>
</svg>
