<svg width="22" height="22" viewBox="0 0 22 22" fill="none" xmlns="http://www.w3.org/2000/svg">
<g clip-path="url(#clip0_1_488)">
<path d="M6.88856 11.2604C7.70771 12.952 9.07559 14.3163 10.7693 15.1312C10.8942 15.1903 11.0324 15.2159 11.1703 15.2055C11.3081 15.1951 11.4408 15.1489 11.5554 15.0715L14.043 13.4097C14.1529 13.3351 14.28 13.2898 14.4122 13.2775C14.5445 13.2653 14.6777 13.2869 14.7993 13.3401L19.4562 15.3402C19.6154 15.4064 19.7483 15.5231 19.8347 15.6724C19.921 15.8216 19.9558 15.9951 19.9338 16.1661C19.7863 17.3181 19.2239 18.3768 18.3522 19.1443C17.4804 19.9116 16.3588 20.3351 15.1974 20.3354C11.6082 20.3354 8.16606 18.9096 5.62815 16.3717C3.09024 13.8337 1.66446 10.3916 1.66446 6.8025C1.66473 5.64105 2.08817 4.5195 2.85557 3.6477C3.62298 2.7759 4.68176 2.21359 5.83378 2.06598C6.00478 2.04401 6.17825 2.07887 6.32749 2.16518C6.47672 2.25148 6.59344 2.38446 6.65969 2.54361L8.65978 7.21047C8.71179 7.33022 8.73355 7.46093 8.72314 7.59108C8.71271 7.72122 8.67045 7.84681 8.60006 7.95677L6.93831 10.4842C6.86432 10.5986 6.8209 10.7299 6.81219 10.8658C6.80349 11.0017 6.82977 11.1376 6.88856 11.2604Z" stroke="#F8B326" stroke-width="2.31579" stroke-linecap="round" stroke-linejoin="round"/>
</g>
<defs>
<clipPath id="clip0_1_488">
<rect width="22" height="22" fill="white"/>
</clipPath>
</defs>
</svg>
